<?xml version="1.0" encoding="UTF-8"?>
<svg version="1.1" xmlns="http://www.w3.org/2000/svg" width="270" height="219">
<path d="M0 0 C1.0785044 -0.00467997 1.0785044 -0.00467997 2.17879677 -0.00945449 C4.60023703 -0.017464 7.02142874 -0.01109948 9.44287109 -0.00482178 C11.17389066 -0.00753033 12.90490908 -0.0110905 14.63592529 -0.01544189 C19.3465633 -0.0245843 24.05711401 -0.02101404 28.7677536 -0.01468372 C33.68892153 -0.00963328 38.61008179 -0.0143125 43.53125 -0.01745605 C51.79672594 -0.0210985 60.06216619 -0.01628932 68.32763672 -0.0067749 C77.89455081 0.00411018 87.46137967 0.0005848 97.0282917 -0.01042771 C105.23042597 -0.01949268 113.43253451 -0.02078975 121.63467216 -0.01555037 C126.53862786 -0.01242631 131.44254344 -0.01203325 136.34649658 -0.01862335 C140.95604712 -0.02438471 145.56548737 -0.02042221 150.17502594 -0.00883484 C151.87059597 -0.00618175 153.56617523 -0.00696433 155.26174164 -0.01136017 C157.56882709 -0.01679163 159.87555479 -0.01001107 162.18261719 0 C164.12278214 0.00113108 164.12278214 0.00113108 166.10214233 0.002285 C169.09130859 0.25396729 169.09130859 0.25396729 171.09130859 2.25396729 C171.34578419 4.39979553 171.34578419 4.39979553 171.352005 7.11260986 C171.35908981 8.13899567 171.36617462 9.16538147 171.37347412 10.22286987 C171.3709967 11.35332733 171.36851929 12.48378479 171.3659668 13.64849854 C171.37107773 14.83551361 171.37618866 16.02252869 171.38145447 17.24551392 C171.39299574 20.50580373 171.39542046 23.76593637 171.39289117 27.0262413 C171.3918233 29.74511179 171.39670001 32.46395869 171.40149659 35.18282413 C171.41260013 41.59490274 171.41302423 48.00692277 171.40698242 54.41900635 C171.4009387 61.04126916 171.41326164 67.66331971 171.43455249 74.2855463 C171.45214437 79.96541483 171.45817375 85.64521565 171.45491475 91.32511044 C171.4530981 94.720044 171.45577582 98.11482612 171.46962929 101.50973511 C171.48189915 105.29313751 171.47525888 109.07604223 171.46362305 112.85943604 C171.47126678 113.98989349 171.47891052 115.12035095 171.48678589 116.2850647 C171.47977158 117.3114505 171.47275726 118.3378363 171.4655304 119.39532471 C171.46569814 120.29055344 171.46586588 121.18578217 171.4660387 122.10813904 C171.34237777 122.81626236 171.21871683 123.52438568 171.09130859 124.25396729 C167.39197402 126.72019033 165.56217408 126.50532523 161.14501953 126.50793457 C160.43403484 126.51105455 159.72305016 126.51417453 158.99052048 126.51738906 C156.60215781 126.52538235 154.21404827 126.51904032 151.82568359 126.51275635 C150.11584321 126.51546562 148.40600399 126.51902619 146.69616699 126.52337646 C142.04750214 126.53251031 137.39892585 126.52895212 132.7502594 126.52261829 C127.89095822 126.51756345 123.03166475 126.52224831 118.17236328 126.52539062 C110.01121658 126.52903178 101.85010605 126.52422727 93.68896484 126.51470947 C84.24644955 126.50382464 74.80402062 126.50735011 65.36150742 126.51836228 C57.2620965 126.52743092 49.16271162 126.52872251 41.06329727 126.52348495 C36.22248163 126.52036291 31.38170661 126.5199623 26.54089355 126.52655792 C21.99042202 126.53232459 17.4400621 126.52834696 12.88960266 126.51676941 C11.21702764 126.51411918 9.54444328 126.51489407 7.87187195 126.51929474 C5.59365261 126.5247374 3.31579385 126.51793187 1.03759766 126.50793457 C-0.23887634 126.50718052 -1.51535034 126.50642647 -2.83050537 126.50564957 C-5.90869141 126.25396729 -5.90869141 126.25396729 -8.90869141 124.25396729 C-9.28342152 122.10813904 -9.28342152 122.10813904 -9.28291321 119.39532471 C-9.28992752 118.3689389 -9.29694183 117.3425531 -9.3041687 116.2850647 C-9.29652496 115.15460724 -9.28888123 114.02414978 -9.28100586 112.85943604 C-9.28465652 111.67242096 -9.28830719 110.48540588 -9.29206848 109.26242065 C-9.29879887 106.00204471 -9.29204071 102.74203908 -9.27873635 99.48169327 C-9.26743926 96.0739969 -9.27152801 92.66631566 -9.27348328 89.25860596 C-9.27436681 83.53533013 -9.26327361 77.81217262 -9.24487305 72.08892822 C-9.22370445 65.46669944 -9.22019516 58.84464403 -9.22643501 52.22238827 C-9.23212463 45.85891868 -9.22648777 39.49551032 -9.21526146 33.13204956 C-9.21061012 30.42075471 -9.20974392 27.70949723 -9.21184731 24.99819946 C-9.21221647 21.21486332 -9.19963935 17.43179466 -9.18334961 13.64849854 C-9.18582703 12.51804108 -9.18830444 11.38758362 -9.19085693 10.22286987 C-9.18377213 9.19648407 -9.17668732 8.17009827 -9.16938782 7.11260986 C-9.16630851 5.76976677 -9.16630851 5.76976677 -9.163167 4.39979553 C-8.53314014 -0.9128139 -4.32802732 0.00252315 0 0 Z M1.09130859 10.25396729 C1.09130859 16.85396729 1.09130859 23.45396729 1.09130859 30.25396729 C14.45630859 30.74896729 14.45630859 30.74896729 28.09130859 31.25396729 C28.27880859 39.06646729 28.27880859 39.06646729 28.29907227 41.51495361 C28.35291338 43.78427956 28.35291338 43.78427956 29.09130859 47.25396729 C31.42872288 49.11173969 31.42872288 49.11173969 34.09130859 50.25396729 C37.53783001 54.61890272 38.7530848 59.52402155 38.47802734 65.01568604 C37.81629766 68.84569726 36.41730137 72.14153569 34.09130859 75.25396729 C33.22505859 75.81986572 32.35880859 76.38576416 31.46630859 76.96881104 C28.68877809 79.16205422 28.68877809 79.16205422 28.60302734 83.14459229 C28.63141204 84.5986211 28.69607844 86.05201645 28.77880859 87.50396729 C28.88193359 90.06146729 28.98505859 92.61896729 29.09130859 95.25396729 C19.85130859 95.58396729 10.61130859 95.91396729 1.09130859 96.25396729 C1.09130859 102.52396729 1.09130859 108.79396729 1.09130859 115.25396729 C26.50130859 115.25396729 51.91130859 115.25396729 78.09130859 115.25396729 C78.09130859 103.70396729 78.09130859 92.15396729 78.09130859 80.25396729 C75.12130859 78.93396729 72.15130859 77.61396729 69.09130859 76.25396729 C64.71955734 70.89857199 63.41056361 66.09923627 64.09130859 59.25396729 C65.88904291 53.36139369 68.18520172 50.68824209 73.09130859 47.25396729 C74.74130859 46.59396729 76.39130859 45.93396729 78.09130859 45.25396729 C78.09130859 33.70396729 78.09130859 22.15396729 78.09130859 10.25396729 C52.68130859 10.25396729 27.27130859 10.25396729 1.09130859 10.25396729 Z M84.09130859 11.25396729 C84.09130859 22.47396729 84.09130859 33.69396729 84.09130859 45.25396729 C89.48204542 48.01775192 89.48204542 48.01775192 95.09130859 50.25396729 C98.04065666 56.48036876 99.47301864 62.75354027 97.40771484 69.48052979 C95.25629108 74.24758493 92.8229009 76.78959629 88.09130859 79.25396729 C86.11130859 79.74896729 86.11130859 79.74896729 84.09130859 80.25396729 C84.09130859 91.80396729 84.09130859 103.35396729 84.09130859 115.25396729 C109.50130859 115.25396729 134.91130859 115.25396729 161.09130859 115.25396729 C161.09130859 108.98396729 161.09130859 102.71396729 161.09130859 96.25396729 C147.23130859 95.75896729 147.23130859 95.75896729 133.09130859 95.25396729 C133.46630859 87.56646729 133.46630859 87.56646729 133.63183594 85.17315674 C133.74436485 81.12442667 133.74436485 81.12442667 131.79492188 77.7131958 C130.28570187 76.48435106 128.68988203 75.36408773 127.09130859 74.25396729 C123.55977223 69.1920985 123.39007499 64.22419226 124.09130859 58.25396729 C125.49346509 54.12539537 126.56866158 52.62062017 130.15380859 50.10552979 C132.75327557 47.98897864 133.53918694 46.60150032 133.89599609 43.26568604 C133.9539121 41.8252531 133.97072027 40.38305732 133.96630859 38.94146729 C134.00755859 36.40459229 134.04880859 33.86771729 134.09130859 31.25396729 C143.00130859 30.92396729 151.91130859 30.59396729 161.09130859 30.25396729 C161.09130859 23.98396729 161.09130859 17.71396729 161.09130859 11.25396729 C135.68130859 11.25396729 110.27130859 11.25396729 84.09130859 11.25396729 Z M1.09130859 35.25396729 C1.09130859 38.55396729 1.09130859 41.85396729 1.09130859 45.25396729 C5.05130859 45.58396729 9.01130859 45.91396729 13.09130859 46.25396729 C13.42130859 57.47396729 13.75130859 68.69396729 14.09130859 80.25396729 C7.65630859 80.74896729 7.65630859 80.74896729 1.09130859 81.25396729 C1.09130859 84.22396729 1.09130859 87.19396729 1.09130859 90.25396729 C8.35130859 90.25396729 15.61130859 90.25396729 23.09130859 90.25396729 C23.09130859 72.10396729 23.09130859 53.95396729 23.09130859 35.25396729 C15.83130859 35.25396729 8.57130859 35.25396729 1.09130859 35.25396729 Z M139.09130859 36.25396729 C139.09130859 54.07396729 139.09130859 71.89396729 139.09130859 90.25396729 C146.35130859 90.25396729 153.61130859 90.25396729 161.09130859 90.25396729 C161.09130859 87.28396729 161.09130859 84.31396729 161.09130859 81.25396729 C157.13130859 80.92396729 153.17130859 80.59396729 149.09130859 80.25396729 C149.09130859 69.03396729 149.09130859 57.81396729 149.09130859 46.25396729 C155.03130859 45.75896729 155.03130859 45.75896729 161.09130859 45.25396729 C161.09130859 42.28396729 161.09130859 39.31396729 161.09130859 36.25396729 C153.83130859 36.25396729 146.57130859 36.25396729 139.09130859 36.25396729 Z M1.09130859 51.25396729 C1.09130859 59.17396729 1.09130859 67.09396729 1.09130859 75.25396729 C3.40130859 75.25396729 5.71130859 75.25396729 8.09130859 75.25396729 C8.09130859 67.33396729 8.09130859 59.41396729 8.09130859 51.25396729 C5.78130859 51.25396729 3.47130859 51.25396729 1.09130859 51.25396729 Z M84.09130859 51.25396729 C83.79568492 56.57567223 83.79568492 56.57567223 86.09130859 61.25396729 C85.55076805 65.79450783 85.55076805 65.79450783 84.09130859 67.25396729 C84.05037922 69.58694162 84.04889136 71.92101953 84.09130859 74.25396729 C88.63987349 72.33346211 91.18889204 70.90431887 93.09130859 66.25396729 C93.63611062 61.97337994 93.37144657 59.80386776 91.40380859 55.94146729 C89.02547867 53.17746224 87.55759586 52.21682486 84.09130859 51.25396729 Z M154.09130859 51.25396729 C154.09130859 59.17396729 154.09130859 67.09396729 154.09130859 75.25396729 C156.40130859 75.25396729 158.71130859 75.25396729 161.09130859 75.25396729 C161.09130859 67.33396729 161.09130859 59.41396729 161.09130859 51.25396729 C158.78130859 51.25396729 156.47130859 51.25396729 154.09130859 51.25396729 Z M72.46630859 54.81646729 C69.84940371 58.18672358 69.09130859 60.93067957 69.09130859 65.25396729 C70.61025924 69.41109538 72.23351116 72.01395587 76.09130859 74.25396729 C76.75130859 74.25396729 77.41130859 74.25396729 78.09130859 74.25396729 C78.13372583 71.92101953 78.13223797 69.58694162 78.09130859 67.25396729 C77.76130859 66.92396729 77.43130859 66.59396729 77.09130859 66.25396729 C76.96630859 62.75396729 76.96630859 62.75396729 77.09130859 59.25396729 C77.42130859 58.92396729 77.75130859 58.59396729 78.09130859 58.25396729 C78.13211642 56.25438365 78.13385216 54.25351475 78.09130859 52.25396729 C74.83769859 51.90469892 74.83769859 51.90469892 72.46630859 54.81646729 Z M29.09130859 54.25396729 C29.09130859 59.86396729 29.09130859 65.47396729 29.09130859 71.25396729 C32.69200785 67.70197978 32.69200785 67.70197978 33.40380859 62.94146729 C33.38649536 58.67222077 33.38649536 58.67222077 29.09130859 54.25396729 Z M132.09130859 54.25396729 C128.82232829 59.48433577 128.75320184 62.42364502 130.09130859 68.25396729 C131.08130859 69.24396729 132.07130859 70.23396729 133.09130859 71.25396729 C133.09130859 65.64396729 133.09130859 60.03396729 133.09130859 54.25396729 C132.76130859 54.25396729 132.43130859 54.25396729 132.09130859 54.25396729 Z " fill="#FFFFFF" transform="translate(53.90869140625,-0.25396728515625)"/>
<path d="M0 0 C1.65 0 3.3 0 5 0 C5 6.93 5 13.86 5 21 C7.97249121 18.02750879 10.90325885 15.07738401 13.76953125 12.01171875 C14.43017578 11.30595703 15.09082031 10.60019531 15.77148438 9.87304688 C16.44501953 9.15181641 17.11855469 8.43058594 17.8125 7.6875 C18.50537109 6.94693359 19.19824219 6.20636719 19.91210938 5.44335938 C21.60883597 3.62961716 23.30477751 1.81514792 25 0 C26.32 0.33 27.64 0.66 29 1 C25.86555838 7.19522794 21.76578326 11.73753184 16.9375 16.6875 C15.5073463 18.1688678 14.07889768 19.65188406 12.65234375 21.13671875 C12.02320068 21.78342529 11.39405762 22.43013184 10.74584961 23.09643555 C9.01905811 24.97922024 7.49618168 26.93108147 6 29 C6.84433594 29.2165625 7.68867188 29.433125 8.55859375 29.65625 C12.75816016 31.29603529 15.63735088 33.62777311 19.0625 36.5 C25.8072694 42.11943113 30.08792048 44.30210439 39 44 C38.98839844 42.68644531 38.97679687 41.37289062 38.96484375 40.01953125 C38.95546172 38.28385559 38.94636196 36.54817839 38.9375 34.8125 C38.92912109 33.94818359 38.92074219 33.08386719 38.91210938 32.19335938 C38.89603188 27.99713231 38.92440962 24.09063114 40 20 C41.98 20 43.96 20 46 20 C46 30.23 46 40.46 46 51 C44.68 51.66 43.36 52.32 42 53 C41.2575 52.1646875 41.2575 52.1646875 40.5 51.3125 C38.17766867 49.7195634 38.17766867 49.7195634 36.234375 50.5390625 C35.25210938 50.98378906 35.25210938 50.98378906 34.25 51.4375 C30.36572663 53.09498214 27.95142967 53.2115203 23.9375 51.91796875 C17.9394822 49.07616596 13.85547889 43.79782163 9.64453125 38.8359375 C7.63603644 36.59367489 5.43142857 34.76831169 3 33 C3.16371094 33.84820312 3.32742187 34.69640625 3.49609375 35.5703125 C4.00948445 39.0645531 4.09850739 42.34627574 4.0625 45.875 C4.05347656 47.02742188 4.04445312 48.17984375 4.03515625 49.3671875 C4.02355469 50.23601562 4.01195312 51.10484375 4 52 C2.35 52.66 0.7 53.32 -1 54 C-2.99267584 52.13807717 -3.92846769 50.61007042 -4.24755859 47.88867188 C-4.29513603 45.33688446 -4.26098224 42.80115255 -4.1875 40.25 C-4.17396484 39.36183594 -4.16042969 38.47367188 -4.14648438 37.55859375 C-4.11121309 35.37177422 -4.06192752 33.18620034 -4 31 C-5.32 30.67 -6.64 30.34 -8 30 C-7.505 28.515 -7.505 28.515 -7 27 C-4.9375 26.3125 -4.9375 26.3125 -3 26 C-3.01160156 25.02160156 -3.02320313 24.04320312 -3.03515625 23.03515625 C-3.13389398 8.68997449 -3.13389398 8.68997449 -2 2 C-1.34 1.34 -0.68 0.68 0 0 Z " fill="#FFFFFF" transform="translate(138,146)"/>
<path d="M0 0 C2.86667955 2.43233417 2.96339364 3.74375545 3.5 7.5 C3 11 3 11 0.875 13.375 C-2.1749041 15.09885884 -4.53177692 15.6773746 -8 16 C-7.67 15.29875 -7.34 14.5975 -7 13.875 C-5.88118207 10.65839846 -5.63242462 8.38169345 -6 5 C-6.87129307 2.96117905 -6.87129307 2.96117905 -9 2 C-14.27977632 1.3840261 -17.9144661 1.75812863 -22.3984375 4.67578125 C-27.64406544 9.01301996 -30.04947409 14.35952038 -31 21 C-31.64832541 28.13157956 -30.14655813 34.41312226 -25.5625 39.9375 C-20.93635154 43.66098535 -18.06981165 44.62791155 -12 44 C-8.57197291 42.25364658 -6.56054433 40.96821293 -4.625 37.625 C-3.92106091 34.66845581 -3.85912616 32.02878759 -4 29 C-4.72445312 29.22816406 -5.44890625 29.45632812 -6.1953125 29.69140625 C-15.79789104 32.54657293 -15.79789104 32.54657293 -21 31 C-21.33 29.68 -21.66 28.36 -22 27 C-13.09214374 22.64504805 -2.8934742 20.86358742 7 22 C7.99 22.66 8.98 23.32 10 24 C10 25.32 10 26.64 10 28 C7.69 28 5.38 28 3 28 C3.495 28.99 3.495 28.99 4 30 C4.61210823 35.07175393 4.43764335 37.9987763 1.5 42.25 C-3.03223646 47.6399728 -8.03680706 49.91042012 -14.9375 50.9375 C-22.2186887 51.39536616 -28.79480219 49.00797128 -34.4921875 44.4765625 C-39.58283904 39.49141669 -40.42671149 34.09870981 -40.5625 27.125 C-40.4701478 18.01991224 -37.79396353 11.73957715 -31.625 5.125 C-22.30504005 -3.48428763 -11.58031808 -5.4606378 0 0 Z " fill="#FFFFFF" transform="translate(40,148)"/>
<path d="M0 0 C2.475 0.495 2.475 0.495 5 1 C5.80859375 2.671875 5.80859375 2.671875 6 5 C3.91015625 7.578125 3.91015625 7.578125 1.0625 10.25 C0.12535156 11.14203125 -0.81179687 12.0340625 -1.77734375 12.953125 C-2.51082031 13.62859375 -3.24429688 14.3040625 -4 15 C-3.3503125 15.721875 -2.700625 16.44375 -2.03125 17.1875 C0.65299223 20.90414309 0.57576721 23.18158686 0.390625 27.625 C-0.16909601 31.02810376 -1.44636588 32.730103 -4 35 C-7.55134635 37.04539568 -10.97865491 37.65581637 -14.9765625 38.33984375 C-17.37451819 38.89122928 -17.37451819 38.89122928 -19 42 C-17.46279297 41.94779297 -17.46279297 41.94779297 -15.89453125 41.89453125 C-14.53387064 41.86637965 -13.1731922 41.83908096 -11.8125 41.8125 C-10.80219727 41.77479492 -10.80219727 41.77479492 -9.77148438 41.73632812 C-5.30248803 41.67092818 -2.54381512 42.24369935 1 45 C2.45887389 47.91774779 2.36823233 49.74728105 2 53 C-0.44768556 58.669639 -4.73752216 61.6277608 -10.234375 64.12109375 C-14.78260716 65.56650651 -19.30457722 65.90008104 -24 65 C-26.2890625 63.70703125 -26.2890625 63.70703125 -28 62 C-28.61114653 57.34000774 -28.62371533 54.44494341 -26 50.5 C-25.34 49.675 -24.68 48.85 -24 48 C-24.66 47.34 -25.32 46.68 -26 46 C-26.4375 43.75 -26.4375 43.75 -26 41 C-24.5005271 38.77952619 -22.83586909 36.97355927 -21 35 C-21.495 34.525625 -21.99 34.05125 -22.5 33.5625 C-24.73862229 29.73818692 -24.77303608 26.32299788 -24 22 C-21.95365954 18.43540694 -20.74810053 16.61697666 -16.875 15.25 C-16.111875 15.04375 -15.34875 14.8375 -14.5625 14.625 C-9.00218953 13.07328545 -7.00052052 9.6877433 -4 5 C-2.67518731 3.32655239 -1.34592097 1.65651812 0 0 Z M-14 18 C-16.93059323 21.04781696 -17.82495637 23.79895295 -18 28 C-16.68864588 30.36290685 -16.68864588 30.36290685 -15 32 C-12.62766389 31.96219702 -12.62766389 31.96219702 -10 31 C-7.48105761 28.38837017 -7.48105761 28.38837017 -6 25 C-6.12865812 21.71357535 -6.12865812 21.71357535 -7 19 C-8.65 19.66 -10.3 20.32 -12 21 C-12 20.01 -12 19.02 -12 18 C-12.66 18 -13.32 18 -14 18 Z M-14 46 C-14 47.32 -14 48.64 -14 50 C-14.83144531 50.39832031 -14.83144531 50.39832031 -15.6796875 50.8046875 C-16.40414062 51.15789062 -17.12859375 51.51109375 -17.875 51.875 C-18.59429687 52.22304687 -19.31359375 52.57109375 -20.0546875 52.9296875 C-22.15135019 53.96557543 -22.15135019 53.96557543 -24 56 C-24 56.99 -24 57.98 -24 59 C-16.68569566 58.76779986 -11.36855864 57.20116483 -6 52 C-4.79205082 48.79712143 -4.79205082 48.79712143 -5 46 C-7.97 46 -10.94 46 -14 46 Z " fill="#FFFFFF" transform="translate(242,154)"/>
<path d="M0 0 C2.31 0 4.62 0 7 0 C6.34 8.25 5.68 16.5 5 25 C11.67518008 18.32481992 14.03585879 9.10647288 16 0 C17.98 0 19.96 0 22 0 C22 10.56 22 21.12 22 32 C20.02 31.67 18.04 31.34 16 31 C14.625 28.4375 14.625 28.4375 14 26 C12.35 27.98 10.7 29.96 9 32 C4.60399922 31.49759991 2.09224369 30.17813935 -1 27 C-3.23602396 19.7759226 -3.45646604 6.91293209 0 0 Z " fill="#FFFFFF" transform="translate(103,167)"/>
<path d="M0 0 C1.60725635 3.21451269 1.05748185 6.43612536 1 10 C1.33773437 9.44570312 1.67546875 8.89140625 2.0234375 8.3203125 C2.46945313 7.59585938 2.91546875 6.87140625 3.375 6.125 C3.81585938 5.40570313 4.25671875 4.68640625 4.7109375 3.9453125 C6 2 6 2 8 0 C13.45454545 0.45454545 13.45454545 0.45454545 16 3 C18.13184917 12.34306072 16.67646128 22.53994915 16 32 C13.625 32.1875 13.625 32.1875 11 32 C6.39952397 25.09928596 9.30588502 13.90795283 10 6 C7.55704509 8.17278984 6.45347106 9.91430539 5.46484375 13.01953125 C5.21283203 13.79490234 4.96082031 14.57027344 4.70117188 15.36914062 C4.44916016 16.17544922 4.19714844 16.98175781 3.9375 17.8125 C3.68162109 18.60720703 3.42574219 19.40191406 3.16210938 20.22070312 C2.66428833 21.76791556 2.1698573 23.31622378 1.67919922 24.86572266 C0.81339968 27.58636231 -0.08931706 30.2940952 -1 33 C-3.31 32.67 -5.62 32.34 -8 32 C-7.34 21.77 -6.68 11.54 -6 1 C-2 0 -2 0 0 0 Z " fill="#FFFFFF" transform="translate(196,166)"/>
<path d="M0 0 C2.31 0 4.62 0 7 0 C6.96447021 0.65073486 6.92894043 1.30146973 6.89233398 1.97192383 C6.73478697 4.91850011 6.58604418 7.86545673 6.4375 10.8125 C6.38142578 11.83666016 6.32535156 12.86082031 6.26757812 13.91601562 C6.21923828 14.89892578 6.17089844 15.88183594 6.12109375 16.89453125 C6.0739624 17.80050049 6.02683105 18.70646973 5.97827148 19.63989258 C5.88045823 22.15384238 5.88045823 22.15384238 7 25 C10.84144637 18.16726342 13.21321041 11.38494889 15.203125 3.80859375 C16 1 16 1 17 0 C18.65 0 20.3 0 22 0 C22 10.56 22 21.12 22 32 C17 31 17 31 15.1875 28.9375 C14.5996875 27.9784375 14.5996875 27.9784375 14 27 C13.2575 27.845625 12.515 28.69125 11.75 29.5625 C9 32 9 32 7.0625 32.125 C1.10947514 28.87789553 1.10947514 28.87789553 -1 26 C-1.77550716 22.29141261 -1.61188723 18.70770271 -1.4375 14.9375 C-1.41880859 13.94427734 -1.40011719 12.95105469 -1.38085938 11.92773438 C-1.27802533 7.80047622 -1.13674737 3.98640965 0 0 Z " fill="#FFFFFF" transform="translate(53,167)"/>
<path d="M0 0 C1 1 1 1 1.0625 3.5625 C1.041875 4.366875 1.02125 5.17125 1 6 C-2.465 7.485 -2.465 7.485 -6 9 C-6.66 8.34 -7.32 7.68 -8 7 C-10.475 8.485 -10.475 8.485 -13 10 C-12.32453125 10.15855469 -11.6490625 10.31710938 -10.953125 10.48046875 C-6.73168111 11.58463254 -3.65843268 12.43344165 -0.3125 15.3125 C1 18 1 18 1.0625 21 C-0.70723023 25.99688535 -3.65901885 28.23748131 -8.1875 30.8125 C-12.82513932 32.25701061 -17.17252558 32.67955307 -22 32 C-24 30 -24 30 -24.375 27.125 C-24 24 -24 24 -22.25 21.625 C-20 20 -20 20 -16 20 C-16.33 21.32 -16.66 22.64 -17 24 C-13.68065327 24 -12.97512393 23.56290854 -10.375 21.6875 C-9.76398438 21.25824219 -9.15296875 20.82898438 -8.5234375 20.38671875 C-6.71881826 18.97094589 -6.71881826 18.97094589 -6 16 C-10.95 16 -15.9 16 -21 16 C-21.66 14.68 -22.32 13.36 -23 12 C-20.81524635 6.31964051 -15.69999035 3.45384096 -10.5625 0.6875 C-6.92736458 -0.28778023 -3.76198146 -0.18809907 0 0 Z " fill="#FFFFFF" transform="translate(269,167)"/>
<path d="M0 0 C2.75 0.8125 2.75 0.8125 3.75 1.8125 C4.11090226 9.27114662 4.11090226 9.27114662 1.75 12.8125 C0.43 12.8125 -0.89 12.8125 -2.25 12.8125 C-2.25 10.5025 -2.25 8.1925 -2.25 5.8125 C-2.91 5.8125 -3.57 5.8125 -4.25 5.8125 C-5.97629975 11.87560158 -6.64319795 17.52486944 -6.875 23.8125 C-6.93300781 25.11767578 -6.93300781 25.11767578 -6.9921875 26.44921875 C-7.08540887 28.57000486 -7.16874136 30.69122185 -7.25 32.8125 C-9.625 33.4375 -9.625 33.4375 -12.25 33.8125 C-14.25 31.8125 -14.25 31.8125 -14.48046875 28.1015625 C-14.47811536 26.54681081 -14.46305414 24.99204346 -14.4375 23.4375 C-14.42960449 22.63127197 -14.42170898 21.82504395 -14.41357422 20.99438477 C-14.21088921 6.66227102 -14.21088921 6.66227102 -13.25 1.8125 C-12.59 1.4825 -11.93 1.1525 -11.25 0.8125 C-10.26 1.1425 -9.27 1.4725 -8.25 1.8125 C-8.25 2.4725 -8.25 3.1325 -8.25 3.8125 C-7.54875 3.131875 -6.8475 2.45125 -6.125 1.75 C-3.25 -0.1875 -3.25 -0.1875 0 0 Z " fill="#FFFFFF" transform="translate(95.25,166.1875)"/>
<path d="M0 0 C2.375 -0.1875 2.375 -0.1875 5 0 C7.79921583 4.19882375 6.86558093 6.12127113 6 11 C5 12 5 12 2.5625 12.1875 C0 12 0 12 -2 10 C-2.34361606 6.04841529 -2.08901197 3.39464446 0 0 Z " fill="#FFFFFF" transform="translate(180,145)"/>
</svg>
